# xmcd
#
# Track frame offsets:
#	150
#	12778
#	21268
#	30831
#	39770
#	50140
#	59411
#	72677
#	84829
#	97979
#	107675
#	118687
#	130786
#	143830
#	153974
#	176421
#	191263
#	202683
#	220274
#	228718
#	236997
#	243468
#	248816
#	258382
#	267829
#	274275
#
# Disc length: 3765 seconds
#
# Revision: 0
# Processed by: cddbd v1.4PL0 Copyright (c) Steve Scherf et al.
# Submitted via: audiograbber 1.81.03
#
DISCID=660eb31a
DTITLE=Elvis Presley - The Complete 50`s Masters [CD5]
DYEAR=1900
DGENRE=
TTITLE0=Thats When Your Heartaches Begin
TTITLE1=Fool, Fool, Fool
TTITLE2=Tweedle Dee
TTITLE3=Maybelline
TTITLE4=Shake, Rattle And Roll
TTITLE5=Blue Moon Of Kentucky
TTITLE6=Blue Moon
TTITLE7=I`m Left, You`re Right, She`s Gone
TTITLE8=Reconsider Baby
TTITLE9=Lawdy, Miss Clawdy
TTITLE10=Shake, Rattle And Roll
TTITLE11=I Want You, I Need You, I Love You
TTITLE12=Heartbreak Hotel
TTITLE13=Long Tall Sally
TTITLE14=Blue Suede Shoes
TTITLE15=Money Honey
TTITLE16=We`re Gonna Move
TTITLE17=Old Shep
TTITLE18=I Beg Of You
TTITLE19=Loving You (Slow)
TTITLE20=Loving You (Uptempo)
TTITLE21=Young And Beautiful
TTITLE22=I Want To Be Free
TTITLE23=King Creole
TTITLE24=As Long As I Have You
TTITLE25=Ain`t That Loving You Baby
EXTD=
EXTT0=
EXTT1=
EXTT2=
EXTT3=
EXTT4=
EXTT5=
EXTT6=
EXTT7=
EXTT8=
EXTT9=
EXTT10=
EXTT11=
EXTT12=
EXTT13=
EXTT14=
EXTT15=
EXTT16=
EXTT17=
EXTT18=
EXTT19=
EXTT20=
EXTT21=
EXTT22=
EXTT23=
EXTT24=
EXTT25=
PLAYORDER=
